<?xml version="1.0" encoding="UTF-8" standalone="no"?>
<!-- Created with Inkscape (http://www.inkscape.org/) -->

<svg
   xmlns:dc="http://purl.org/dc/elements/1.1/"
   xmlns:cc="http://creativecommons.org/ns#"
   xmlns:rdf="http://www.w3.org/1999/02/22-rdf-syntax-ns#"
   xmlns:svg="http://www.w3.org/2000/svg"
   xmlns="http://www.w3.org/2000/svg"
   xmlns:sodipodi="http://sodipodi.sourceforge.net/DTD/sodipodi-0.dtd"
   xmlns:inkscape="http://www.inkscape.org/namespaces/inkscape"
   width="495.71005"
   height="645.6673"
   id="svg2"
   version="1.1"
   inkscape:version="0.48.3.1 r9886"
   sodipodi:docname="logo.svg">
  <defs
     id="defs4" />
  <sodipodi:namedview
     id="base"
     pagecolor="#ffffff"
     bordercolor="#666666"
     borderopacity="1.0"
     inkscape:pageopacity="0.0"
     inkscape:pageshadow="2"
     inkscape:zoom="0.1767767"
     inkscape:cx="2713.8182"
     inkscape:cy="404.5289"
     inkscape:document-units="px"
     inkscape:current-layer="layer1"
     showgrid="false"
     showguides="true"
     inkscape:guide-bbox="true"
     inkscape:window-width="1763"
     inkscape:window-height="1015"
     inkscape:window-x="155"
     inkscape:window-y="24"
     inkscape:window-maximized="0"
     fit-margin-top="0"
     fit-margin-left="0"
     fit-margin-right="0"
     fit-margin-bottom="0">
    <sodipodi:guide
       orientation="0,1"
       position="344.00003,836.97262"
       id="guide4699" />
    <sodipodi:guide
       orientation="1,0"
       position="3.2394208e-05,962.97262"
       id="guide4701" />
    <sodipodi:guide
       orientation="0,1"
       position="1076.6846,645.66728"
       id="guide6342" />
    <sodipodi:guide
       orientation="1,0"
       position="1228,40.97262"
       id="guide6410" />
    <sodipodi:guide
       orientation="0,1"
       position="1544.5,153.97262"
       id="guide6412" />
    <sodipodi:guide
       orientation="1,0"
       position="1720,73.97262"
       id="guide6414" />
    <sodipodi:guide
       orientation="0,1"
       position="2680.4027,402.42255"
       id="guide6527" />
  </sodipodi:namedview>
  <metadata
     id="metadata7">
    <rdf:RDF>
      <cc:Work
         rdf:about="">
        <dc:format>image/svg+xml</dc:format>
        <dc:type
           rdf:resource="http://purl.org/dc/dcmitype/StillImage" />
        <dc:title></dc:title>
      </cc:Work>
    </rdf:RDF>
  </metadata>
  <g
     inkscape:label="Layer 1"
     inkscape:groupmode="layer"
     id="layer1"
     transform="translate(-65.999968,-107.66753)">
    <rect
       ry="93"
       y="107.66753"
       x="68.775452"
       height="186"
       width="186"
       id="rect6209"
       style="fill:#000000;fill-opacity:1;fill-rule:nonzero"
       inkscape:export-filename="/home/jvisca/rect4768.png"
       inkscape:export-xdpi="2.9268293"
       inkscape:export-ydpi="2.9268293" />
    <rect
       style="fill:#151515;fill-opacity:1;fill-rule:nonzero"
       id="rect6211"
       width="132"
       height="132"
       x="-323.77545"
       y="107.66753"
       ry="66"
       transform="scale(-1,1)"
       inkscape:export-filename="/home/jvisca/rect4768.png"
       inkscape:export-xdpi="2.9268293"
       inkscape:export-ydpi="2.9268293" />
    <rect
       ry="67.75"
       y="107.66753"
       x="314.77545"
       height="135.5"
       width="135.5"
       id="rect6217"
       style="fill:#2a2a2a;fill-opacity:1;fill-rule:nonzero"
       inkscape:export-filename="/home/jvisca/rect4768.png"
       inkscape:export-xdpi="2.9268293"
       inkscape:export-ydpi="2.9268293" />
    <rect
       style="fill:#3f3f3f;fill-opacity:1;fill-rule:nonzero"
       id="rect6215"
       width="186.5"
       height="186.5"
       x="-560.77545"
       y="107.66753"
       ry="93.25"
       transform="scale(-1,1)"
       inkscape:export-filename="/home/jvisca/rect4768.png"
       inkscape:export-xdpi="2.9268293"
       inkscape:export-ydpi="2.9268293" />
    <rect
       transform="scale(-1,-1)"
       ry="65.75"
       y="-362.16751"
       x="-560.77545"
       height="131.5"
       width="131.5"
       id="rect6225"
       style="fill:#545454;fill-opacity:1;fill-rule:nonzero"
       inkscape:export-filename="/home/jvisca/rect4768.png"
       inkscape:export-xdpi="2.9268293"
       inkscape:export-ydpi="2.9268293" />
    <rect
       style="fill:#696969;fill-opacity:1;fill-rule:nonzero"
       id="rect6249"
       width="135.5"
       height="135.5"
       x="-560.77545"
       y="353.66751"
       ry="67.75"
       transform="scale(-1,1)"
       inkscape:export-filename="/home/jvisca/rect4768.png"
       inkscape:export-xdpi="2.9268293"
       inkscape:export-ydpi="2.9268293" />
    <rect
       transform="scale(-1,-1)"
       ry="93.25"
       y="-599.66754"
       x="-560.77545"
       height="186.5"
       width="186.5"
       id="rect6237"
       style="fill:#7e7e7e;fill-opacity:1;fill-rule:nonzero"
       inkscape:export-filename="/home/jvisca/rect4768.png"
       inkscape:export-xdpi="2.9268293"
       inkscape:export-ydpi="2.9268293" />
    <rect
       style="fill:#939393;fill-opacity:1;fill-rule:nonzero"
       id="rect6239"
       width="132"
       height="132"
       x="305.77545"
       y="-599.66754"
       ry="66"
       transform="scale(1,-1)"
       inkscape:export-filename="/home/jvisca/rect4768.png"
       inkscape:export-xdpi="2.9268293"
       inkscape:export-ydpi="2.9268293" />
    <rect
       transform="scale(-1,-1)"
       ry="67.5"
       y="-599.66754"
       x="-314.77545"
       height="135"
       width="135"
       id="rect6233"
       style="fill:#a8a8a8;fill-opacity:1;fill-rule:nonzero"
       inkscape:export-filename="/home/jvisca/rect4768.png"
       inkscape:export-xdpi="2.9268293"
       inkscape:export-ydpi="2.9268293" />
    <rect
       style="fill:#bdbdbd;fill-opacity:1;fill-rule:nonzero"
       id="rect6231"
       width="186.5"
       height="186.5"
       x="68.775452"
       y="-599.66754"
       ry="93.25"
       transform="scale(1,-1)"
       inkscape:export-filename="/home/jvisca/rect4768.png"
       inkscape:export-xdpi="2.9268293"
       inkscape:export-ydpi="2.9268293" />
    <rect
       ry="66"
       y="344.66751"
       x="68.775452"
       height="132"
       width="132"
       id="rect6243"
       style="fill:#d2d2d2;fill-opacity:1;fill-rule:nonzero"
       inkscape:export-filename="/home/jvisca/rect4768.png"
       inkscape:export-xdpi="2.9268293"
       inkscape:export-ydpi="2.9268293" />
    <path
       style="fill:#e7e7e7;fill-opacity:1;fill-rule:nonzero"
       d="m 81.119251,247.15625 c -7.7771,11.00128 -12.3438,24.44413 -12.3438,39 0,37.395 30.105,67.5 67.499999,67.5 37.395,0 67.5,-30.105 67.5,-67.5 0,-0.81062 -0.0344,-1.60271 -0.0625,-2.40625 -12.5904,6.3434 -26.8258,9.90625 -41.9375,9.90625 -34.5666,0 -64.624399,-18.65259 -80.656199,-46.5 z"
       id="rect6221"
       inkscape:connector-curvature="0" />
    <rect
       transform="scale(-1,-1)"
       ry="123"
       y="-476.66751"
       x="-437.77545"
       height="246"
       width="246"
       id="rect6253"
       style="fill:#ff9900;fill-opacity:1;fill-rule:nonzero"
       inkscape:export-filename="/home/jvisca/rect4768.png"
       inkscape:export-xdpi="2.9268293"
       inkscape:export-ydpi="2.9268293" />
    <g
       style="font-size:189.35824585px;font-style:normal;font-variant:normal;font-weight:normal;font-stretch:normal;text-align:start;line-height:125%;letter-spacing:0px;word-spacing:0px;writing-mode:lr-tb;text-anchor:start;fill:#000000;fill-opacity:1;stroke:none;font-family:UnDinaru;-inkscape-font-specification:UnDinaru"
       id="text6508"
       transform="matrix(1.0426569,0,0,1.0426569,-1297.7083,-62.186695)">
      <path
         d="m 1307.9166,643.37451 c -10e-5,-5.79402 2.7121,-8.6911 8.1364,-8.69124 2.5273,1.4e-4 4.5922,0.709 6.1949,2.12658 1.4177,1.35622 2.1265,3.42116 2.1265,6.19482 l 0,129.90642 c 0,5.91744 -2.7738,8.87616 -8.3214,8.87617 -2.0341,-10e-6 -3.8525,-0.80133 -5.4551,-2.40397 -1.7876,-1.541 -2.6814,-3.6984 -2.6813,-6.4722 l 0,-129.53658"
         id="path6517"
         inkscape:connector-curvature="0" />
      <path
         d="m 1346.3799,687.10813 c 0,-5.67078 2.7122,-8.50622 8.1365,-8.50633 2.1574,1.1e-4 4.0991,0.70897 5.825,2.12659 1.6643,1.47946 2.4964,3.60604 2.4964,6.37974 l 0,55.10621 c 0,7.82832 1.9417,13.9615 5.825,18.39956 3.945,4.56138 9.7083,6.84206 17.2901,6.84204 15.7797,2e-5 23.6697,-8.41384 23.6697,-25.2416 l 0,-55.10621 c 0,-5.67078 2.7121,-8.50622 8.1365,-8.50633 2.2806,1.1e-4 4.2223,0.64733 5.825,1.94167 1.6642,1.2329 2.4963,3.42112 2.4964,6.56466 l 0,55.47605 c -10e-5,15.53332 -5.8559,26.78262 -17.5674,33.74793 -6.2257,3.63676 -13.8691,5.45514 -22.9301,5.45515 -16.951,-10e-6 -28.5702,-6.56466 -34.8574,-19.694 -2.8971,-6.16398 -4.3457,-12.667 -4.3457,-19.50908 l 0,-55.47605"
         id="path6519"
         inkscape:connector-curvature="0" />
      <path
         d="m 1447.7162,686.73829 c 0,-2.28058 0.8938,-4.09896 2.6813,-5.45514 1.6027,-1.5409 3.5443,-2.3114 5.825,-2.3115 5.3011,1e-4 7.9516,2.83554 7.9516,8.50632 l 0,3.23611 c 6.842,-8.07475 15.6257,-12.11217 26.3511,-12.11228 11.465,1.1e-4 20.4953,5.67099 27.0908,17.01266 8.3213,-11.34167 18.9234,-17.01255 31.8063,-17.01266 6.0406,1.1e-4 11.7731,1.51029 17.1976,4.53055 11.3416,6.22574 17.0125,16.88945 17.0126,31.99119 l 0,58.52723 c -10e-5,2.28068 -0.8014,4.25316 -2.4039,5.91744 -1.7877,1.47936 -3.8219,2.21904 -6.1024,2.21905 -2.0343,-10e-6 -3.8526,-0.73969 -5.4551,-2.21905 -1.7877,-1.78756 -2.6815,-3.76004 -2.6814,-5.91744 l 0,-57.32525 c -10e-5,-5.1777 -0.8323,-9.3384 -2.4964,-12.48211 -3.3903,-7.21181 -9.5543,-10.81774 -18.492,-10.81783 -6.2258,9e-5 -11.5268,1.81847 -15.9032,5.45514 -4.1916,3.5752 -6.2873,9.52346 -6.2872,17.8448 l 0,57.32525 c -10e-5,2.40396 -0.8015,4.25316 -2.404,5.5476 -1.7877,1.47936 -3.8218,2.21904 -6.1024,2.21905 -2.0342,-10e-6 -3.8526,-0.73969 -5.4551,-2.21905 -1.7877,-1.41772 -2.6814,-3.26692 -2.6814,-5.5476 l 0,-56.58557 c 0,-8.19806 -1.9725,-14.23878 -5.9174,-18.12218 -3.8834,-3.94487 -9.0612,-5.91735 -15.5333,-5.91744 -8.3215,9e-5 -14.4855,3.20536 -18.492,9.61585 -2.0342,3.14371 -3.0512,7.30441 -3.0512,12.48211 l 0,58.52723 c 0,5.42432 -2.7738,8.13648 -8.3214,8.13649 -2.0341,-10e-6 -3.8525,-0.73969 -5.4552,-2.21905 -1.7875,-1.541 -2.6813,-3.51348 -2.6813,-5.91744 l 0,-86.91248"
         id="path6521"
         inkscape:connector-curvature="0" />
      <path
         d="m 1620.2467,685.99861 c 7.0269,-4.9311 14.7011,-7.3967 23.0226,-7.39681 17.6906,1.1e-4 30.5734,8.59889 38.6483,25.79637 3.8216,7.95163 5.7324,16.02647 5.7325,24.22454 -10e-5,5.42437 -3.1129,8.13653 -9.3385,8.13649 l -62.8728,0 c 0,12.8828 5.1161,21.91306 15.3484,27.0908 4.6846,2.40398 9.8007,3.60596 15.3483,3.60594 9.8624,2e-5 18.8926,-3.48264 27.0908,-10.44799 2.4039,-2.03409 4.4997,-3.05115 6.2873,-3.05118 3.8833,3e-5 5.8249,2.34235 5.825,7.02697 -10e-5,2.2807 -0.8014,4.31482 -2.404,6.10236 -3.945,4.37646 -9.77,8.01322 -17.4749,10.91029 -6.9654,2.52724 -13.715,3.79086 -20.2488,3.79087 -15.3484,-10e-6 -27.2757,-5.67089 -35.782,-17.01266 -3.945,-5.30102 -6.7188,-10.91026 -8.3214,-16.82773 -1.7876,-6.34889 -2.6814,-12.23551 -2.6814,-17.65988 l 0.1849,-0.73968 c 0.1233,-8.32135 2.1574,-16.51947 6.1024,-24.59438 3.76,-8.07477 8.9378,-14.39286 15.5333,-18.95432 m -4.8079,38.09355 55.476,0 c 0,-8.99938 -2.3732,-16.45782 -7.1194,-22.37533 -4.6847,-5.79409 -11.2802,-8.69116 -19.7865,-8.69125 -8.4447,9e-5 -15.1634,2.71224 -20.1562,8.13648 -5.6093,5.91752 -8.4139,13.56088 -8.4139,22.9301"
         id="path6523"
         inkscape:connector-curvature="0" />
      <path
         d="m 1703.6457,687.47797 c 0,-2.7737 0.8013,-4.90028 2.4039,-6.37974 1.541,-1.66418 3.4519,-2.49632 5.7326,-2.49643 2.4039,1.1e-4 4.4072,0.70897 6.0099,2.12659 1.5409,1.47946 2.3114,3.72932 2.3115,6.74958 l 0,3.97579 0.3698,0.36984 c 3.1436,-4.25307 7.1194,-7.51999 11.9274,-9.80077 4.6846,-2.28058 9.8623,-3.42092 15.5333,-3.42103 14.1771,1.1e-4 24.4093,5.67099 30.6967,17.01266 3.1436,5.60932 4.7154,12.75956 4.7155,21.45074 l 0,56.21573 c -10e-5,2.28069 -0.8323,4.25316 -2.4965,5.91744 -1.4794,1.47936 -3.4211,2.21904 -5.8249,2.21905 -2.0342,-10e-6 -3.8526,-0.73969 -5.4552,-2.21905 -1.7876,-1.41772 -2.6814,-3.3902 -2.6813,-5.91744 l 0,-55.84589 c -10e-5,-7.45838 -2.3424,-13.31418 -7.027,-17.56742 -4.4381,-4.31472 -9.8625,-6.47211 -16.273,-6.4722 -4.1915,9e-5 -7.9824,0.80141 -11.3726,2.40396 -3.2669,1.66436 -6.164,4.53062 -8.6912,8.59879 -2.2807,3.88339 -3.4211,8.35229 -3.421,13.40671 l 0,55.47605 c -10e-5,5.91744 -2.6506,8.87616 -7.9516,8.87617 -2.2807,-10e-6 -4.2224,-0.80133 -5.825,-2.40397 -1.7876,-1.78756 -2.6813,-3.94496 -2.6813,-6.4722 l 0,-85.80296"
         id="path6525"
         inkscape:connector-curvature="0" />
    </g>
  </g>
</svg>
